<?xml version="1.0" standalone="no"?>
<!DOCTYPE svg PUBLIC "-//W3C//DTD SVG 20010904//EN"
 "http://www.w3.org/TR/2001/REC-SVG-20010904/DTD/svg10.dtd">
<svg version="1.0" xmlns="http://www.w3.org/2000/svg"
 width="494.000000pt" height="363.000000pt" viewBox="0 0 494.000000 363.000000"
 preserveAspectRatio="xMidYMid meet">
<metadata>
Created by potrace 1.16, written by Peter Selinger 2001-2019
</metadata>
<g transform="translate(0.000000,363.000000) scale(0.100000,-0.100000)"
fill="#000000" stroke="none">
<path d="M2109 3191 c-27 -28 -29 -34 -29 -110 l0 -81 -97 6 c-54 3 -103 7
-110 9 -29 9 -266 -17 -358 -39 -526 -127 -926 -540 -1042 -1077 -14 -66 -18
-129 -18 -292 l0 -207 -137 0 -138 0 0 -530 0 -530 -66 0 -66 0 7 -42 c9 -57
34 -98 75 -125 l33 -23 891 0 c866 0 892 1 923 20 18 10 39 32 47 47 12 25 24
30 88 42 402 74 783 364 973 741 123 244 172 557 130 834 -8 55 -15 103 -15
108 0 4 144 8 321 8 210 0 327 4 341 11 47 25 48 43 48 622 0 372 -3 554 -11
576 -22 64 17 61 -914 61 l-847 0 -29 -29z m1732 -21 c16 -9 19 -22 19 -75 l0
-65 -870 0 -870 0 0 57 c0 102 -87 93 867 93 556 0 841 -3 854 -10z m19 -668
c0 -366 -3 -491 -12 -500 -17 -17 -1699 -17 -1716 0 -9 9 -12 134 -12 500 l0
488 870 0 870 0 0 -488z m-1820 440 l35 -8 5 -469 c3 -259 9 -476 14 -484 25
-39 58 -41 559 -41 l482 1 17 -83 c23 -109 24 -340 3 -463 -89 -510 -470 -926
-970 -1061 -109 -29 -135 -30 -135 -6 0 14 -9 17 -57 17 l-58 0 -5 525 -5 525
-695 3 c-382 1 -698 6 -703 11 -18 18 -27 205 -17 325 30 324 159 602 386 830
211 212 491 348 792 385 81 10 292 6 352 -7z m-152 -2089 l-3 -508 -37 -3 -38
-3 0 475 0 476 -755 0 -755 0 -2 -472 -3 -473 -37 -3 -38 -3 0 510 0 511 835
0 835 0 -2 -507z m-120 -60 l-3 -448 -710 0 -710 0 -3 448 -2 447 715 0 715 0
-2 -447z m-948 -508 c10 -13 50 -15 237 -15 190 0 225 2 229 15 5 13 55 15
365 15 197 0 359 -2 359 -5 0 -3 -6 -21 -14 -39 -29 -71 36 -66 -943 -66
l-883 0 -29 28 c-17 15 -33 39 -37 55 l-6 27 355 0 c303 0 356 -2 367 -15z"/>
<path d="M1607 2554 c-4 -4 -7 -191 -7 -416 0 -356 -2 -408 -15 -408 -13 0
-15 30 -15 214 0 186 -2 215 -16 220 -20 8 -198 8 -218 0 -14 -5 -16 -34 -16
-220 0 -183 -2 -214 -15 -214 -13 0 -15 47 -17 343 l-3 342 -120 0 -120 0 -3
-342 c-2 -296 -4 -343 -17 -343 -13 0 -15 34 -15 235 0 214 -2 235 -18 244
-20 11 -203 13 -220 2 -8 -5 -12 -76 -14 -241 l-3 -235 -59 -5 c-42 -4 -62
-10 -70 -23 -8 -14 -8 -20 4 -27 9 -6 275 -10 683 -10 587 0 668 2 673 15 12
29 -16 45 -77 45 l-59 0 -2 413 -3 412 -116 3 c-63 1 -118 -1 -122 -4z m193
-439 l0 -385 -70 0 -70 0 0 385 0 385 70 0 70 0 0 -385z m-570 -68 l0 -318
-67 3 -68 3 -3 304 c-1 168 -1 310 1 315 3 6 33 11 71 11 l66 0 0 -318z m-280
-102 l0 -216 -67 3 -68 3 -3 199 c-2 110 -1 205 2 213 4 9 25 13 71 13 l65 0
0 -215z m560 -25 l0 -190 -65 0 -65 0 0 190 0 190 65 0 65 0 0 -190z"/>
<path d="M2353 1755 c-236 -66 -382 -286 -352 -530 32 -258 293 -451 549 -406
157 28 288 127 358 270 36 75 37 78 37 196 0 102 -4 129 -24 178 -50 126 -174
245 -294 283 -73 23 -209 27 -274 9z m147 -67 c0 -38 -42 -322 -50 -331 -8 -9
-284 189 -288 207 -3 14 76 80 128 106 40 21 111 38 163 39 42 1 47 -1 47 -21z
m194 -43 c63 -37 123 -106 159 -183 30 -62 32 -74 32 -172 -1 -70 -6 -116 -15
-137 l-15 -33 -165 90 c-91 49 -169 91 -173 93 -8 2 37 351 49 382 7 17 60 0
128 -40z m-430 -236 c70 -51 123 -95 119 -99 -9 -8 -273 -50 -310 -50 -17 0
-23 6 -23 24 0 78 52 231 75 222 6 -2 69 -46 139 -97z m167 -330 c-6 -82 -11
-161 -11 -175 0 -25 -2 -26 -42 -20 -102 17 -225 113 -278 220 -42 83 -40 93
18 102 26 4 108 17 182 29 114 18 136 19 138 7 2 -7 -1 -81 -7 -163z m229 77
c85 -45 156 -88 158 -94 5 -17 -59 -83 -121 -123 -50 -32 -160 -69 -208 -69
-9 0 -10 29 -5 118 7 121 17 252 21 252 1 0 71 -38 155 -84z"/>
<path d="M1385 1141 c-138 -35 -213 -182 -156 -307 27 -58 92 -111 158 -125
46 -11 62 -10 106 4 86 27 156 114 157 195 l0 32 -92 0 -91 0 62 65 c54 56 61
68 50 81 -34 41 -135 70 -194 55z m136 -47 c16 -8 29 -18 29 -22 0 -4 -29 -37
-65 -72 -36 -35 -65 -70 -65 -77 0 -10 25 -13 100 -13 109 0 110 -1 89 -57
-24 -64 -109 -122 -179 -123 -48 0 -118 37 -154 83 -40 51 -48 134 -18 194 25
48 73 91 110 99 15 3 32 7 37 10 18 6 86 -6 116 -22z"/>
</g>
</svg>
